<?xml version="1.0" standalone="no"?>
<!DOCTYPE svg PUBLIC "-//W3C//DTD SVG 20010904//EN"
 "http://www.w3.org/TR/2001/REC-SVG-20010904/DTD/svg10.dtd">
<svg version="1.0" xmlns="http://www.w3.org/2000/svg"
 width="500.000000pt" height="500.000000pt" viewBox="0 0 500.000000 500.000000"
 preserveAspectRatio="xMidYMid meet">
<metadata>
Created by potrace 1.11, written by Peter Selinger 2001-2013
</metadata>
<g transform="translate(0.000000,500.000000) scale(0.100000,-0.100000)"
fill="#000000" stroke="none">
<path d="M2710 4285 c-58 -35 -116 -70 -130 -77 -14 -7 -42 -23 -62 -35 -42
-26 -304 -157 -578 -291 -298 -145 -472 -258 -608 -393 -52 -52 -134 -164
-138 -188 0 -3 -4 -13 -7 -21 -15 -34 -24 -100 -20 -145 12 -164 189 -289 330
-234 27 11 27 12 -37 29 -113 32 -147 98 -99 193 51 100 125 163 339 287 116
67 388 207 505 260 28 13 80 37 118 55 60 29 85 28 58 0 -21 -25 -135 -360
-147 -435 -3 -19 -7 -37 -9 -40 -18 -30 -25 -259 -9 -321 15 -62 141 -312 195
-391 11 -14 19 -28 19 -31 0 -2 39 -74 86 -158 210 -377 267 -539 239 -679 -2
-14 -7 -38 -11 -55 -10 -56 -47 -160 -74 -215 -115 -229 -317 -352 -580 -353
-182 0 -273 32 -417 145 -116 91 -250 305 -278 443 -5 22 -9 45 -11 50 -37
150 -18 320 46 416 66 100 190 136 334 98 64 -17 51 -3 -29 30 -179 75 -316
62 -416 -41 -50 -50 -101 -155 -124 -253 -23 -98 -31 -260 -15 -337 7 -35 14
-73 16 -86 13 -69 74 -209 130 -297 116 -184 284 -335 479 -432 120 -60 148
-71 252 -98 120 -31 198 -40 344 -38 232 3 445 77 653 225 472 335 660 936
434 1387 -23 46 -114 192 -203 325 -271 406 -327 560 -277 756 40 158 149 261
279 261 56 1 144 -22 171 -44 18 -15 26 -1 11 18 -98 118 -216 179 -344 176
-198 -4 -355 -134 -431 -358 -23 -66 -27 -95 -28 -193 0 -181 48 -317 198
-560 250 -406 345 -598 372 -745 9 -54 10 -198 1 -264 -23 -171 -125 -355
-269 -486 -99 -89 -281 -203 -396 -246 -30 -11 -26 -7 38 42 371 282 521 645
424 1024 -9 33 -22 76 -30 95 -43 101 -285 549 -360 668 -19 29 -34 55 -34 58
0 3 -11 22 -25 42 -37 54 -74 159 -78 221 -5 67 12 166 53 306 85 293 123 430
171 612 73 281 97 383 90 382 -3 0 -53 -29 -111 -64z"/>
</g>
</svg>
